# xmcd
#
# Track frame offsets:
#	150
#	19316
#	34467
#	47107
#	63618
#	77846
#	101933
#	120906
#	140652
#	161320
#	182195
#	197158
#	213183
#	231433
#	251526
#	269789
#
# Disc length: 4022 seconds
#
# Revision: 1
# Processed by: cddbd v1.5.2PL0 Copyright (c) Steve Scherf et al.
# Submitted via: audiograbber 1.83.01
#
DISCID=f30fb410
DTITLE=Jackson, Alan - CB5045-03
DYEAR=2007
DGENRE=Country
TTITLE0=Where I Come From
TTITLE1=It Must Be Love
TTITLE2=WWW.Memory
TTITLE3=When Somebody Loves You
TTITLE4=Its Alright To Be a Redneck
TTITLE5=Wher Were You
TTITLE6=Drive (For Daddy Gene)
TTITLE7=Work In Progress
TTITLE8=Murder On Music Row
TTITLE9=Remember When
TTITLE10=Too Much Of A Good Thing
TTITLE11=Monday Morning Church
TTITLE12=Designated Drinker
TTITLE13=Margaritaville
TTITLE14=It's Five O'Clock Somewhere
TTITLE15=The Blue Man
EXTD=
EXTT0=
EXTT1=
EXTT2=
EXTT3=
EXTT4=
EXTT5=
EXTT6=
EXTT7=
EXTT8=
EXTT9=
EXTT10=
EXTT11=
EXTT12=
EXTT13=
EXTT14=
EXTT15=
PLAYORDER=
